<?xml version="1.0" encoding="UTF-8"?>
<svg width="20pt" height="20pt" version="1.1" viewBox="0 0 752 752" xmlns="http://www.w3.org/2000/svg">
 <g fillRule="evenodd">
  <path d="m376 214.89c-66.309 0.027344-132.63 0.14844-198.9 0.14844-4.9648 0.003907-9.4766 4.5195-9.4727 9.4727v303.09c0 4.9531 4.5078 9.4648 9.4727 9.4727 132.62 0.09375 265.28 0 397.81 0 4.9648-0.003907 9.4766-4.5195 9.4727-9.4727v-303.09c0-4.9531-4.5078-9.4648-9.4727-9.4727-66.301-0.10937-132.59-0.17578-198.9-0.14844zm-189.43 19.09h58.902v40.996h-58.902zm77.844 0h224.36v284.15h-224.36zm243.3 0h57.719v40.996h-57.719zm-321.15 59.938h58.902v42.18h-58.902zm321.15 0h57.719v42.18h-57.719zm-321.15 61.121h58.902v42.031h-58.902zm321.15 0h57.719v42.031h-57.719zm-321.15 60.973h58.902v42.031h-58.902zm321.15 0h57.719v42.031h-57.719zm-321.15 60.973h58.902v41.141h-58.902zm321.15 0h57.719v41.141h-57.719z"/>
  <path d="m318.77 297.5c-5.082 0.21094-9.0938 4.3789-9.0938 9.4531v141.94c0 3.4375 1.8711 6.6055 4.8867 8.2695 3.0156 1.668 6.7031 1.5703 9.625-0.25l113.85-70.969v-0.003906c2.7695-1.7266 4.4531-4.7578 4.4531-8.0195s-1.6836-6.293-4.4531-8.0195l-113.85-70.969v-0.003907c-1.6211-1.0117-3.5078-1.5078-5.418-1.4297z"/>
 </g>
</svg>
