<?xml version="1.0" encoding="UTF-8"?>
<svg width="60pt" height="60pt" version="1.1" viewBox="0 0 752 752" xmlns="http://www.w3.org/2000/svg">
 <path d="m553.39 273.83c-1.7148-22.977-13.074-44.152-31.266-58.285-18.195-14.133-41.52-19.902-64.203-15.883-17.559-28.379-48.547-45.648-81.918-45.648-33.367 0-64.359 17.27-81.914 45.648-22.684-4.0195-46.004 1.7539-64.195 15.887s-29.547 35.309-31.262 58.281c-21.898 11.117-37.605 31.535-42.742 55.551-5.1367 24.02 0.84766 49.074 16.285 68.18 15.434 19.105 38.672 30.219 63.234 30.242h81.398v29.598h-51.797c-2.9141 0-5.5547 1.7031-6.75 4.3555-1.1992 2.6523-0.72656 5.7617 1.1992 7.9414l111 125.8c1.4023 1.5938 3.4258 2.5039 5.5469 2.5039 2.125 0 4.1445-0.91016 5.5508-2.5039l111-125.8c1.9258-2.1797 2.3945-5.2891 1.1992-7.9414-1.1992-2.6523-3.8398-4.3555-6.75-4.3555h-51.797v-29.598h81.398c24.562-0.019531 47.805-11.129 63.242-30.234 15.441-19.105 21.43-44.16 16.293-68.18-5.1367-24.023-20.844-44.438-42.746-55.559zm-82.789 198.37-94.598 107.21-94.598-107.21h42.801c1.9648 0 3.8438-0.78125 5.2344-2.168 1.3867-1.3906 2.1641-3.2695 2.1641-5.2344v-177.59h88.797v177.59c0 1.9648 0.78125 3.8438 2.168 5.2344 1.3867 1.3867 3.2695 2.168 5.2344 2.168zm46-59.199h-81.398v-133.2c0-1.9609-0.78125-3.8438-2.168-5.2305-1.3867-1.3906-3.2695-2.168-5.2305-2.168h-103.6c-4.0859 0-7.3984 3.3125-7.3984 7.3984v133.2h-81.398c-20.539-0.023438-39.918-9.5234-52.516-25.742-12.598-16.223-17.008-37.348-11.953-57.254 5.0586-19.906 19.016-36.363 37.832-44.605 2.6562-1.1562 4.3906-3.7617 4.4375-6.6602 0.36328-17.449 7.5312-34.066 19.973-46.309 12.441-12.242 29.172-19.141 46.625-19.223 5.4453-0.015625 10.871 0.65234 16.148 1.9922 3.2891 0.84375 6.7305-0.66016 8.3438-3.6484 9.3672-17.316 24.68-30.66 43.117-37.562 18.434-6.9062 38.746-6.9062 57.184 0 18.434 6.9023 33.75 20.246 43.113 37.562 1.6172 2.9844 5.0547 4.4883 8.3398 3.6484 5.2773-1.3398 10.703-2.0078 16.148-1.9922 17.453 0.082031 34.184 6.9805 46.625 19.223 12.441 12.242 19.609 28.859 19.969 46.309 0.050781 2.8984 1.7852 5.5039 4.4414 6.6602 18.812 8.2422 32.773 24.699 37.828 44.605 5.0586 19.906 0.64844 41.031-11.949 57.254-12.602 16.219-31.98 25.719-52.516 25.742z"/>
</svg>
