<?xml version="1.0" encoding="UTF-8"?>
<svg width="30pt" fill="red" height="30pt" version="1.1" viewBox="0 0 752 752" xmlns="http://www.w3.org/2000/svg">
 <g>
  <path d="m429.59 210.77 18.863 39.836c4.6016 9.7188 13.719 16.348 24.387 17.727l43.621 5.4961-8.1133 43.344c-1.9766 10.551 1.5039 21.254 9.3008 28.629l32.039 30.109-32.043 30.305c-7.7969 7.375-11.277 18.074-9.3008 28.625l8.2266 43.191-43.734 5.6523c-10.664 1.3789-19.781 8.0039-24.387 17.727l-18.68 39.777-38.688-21.148c-4.6094-2.5273-9.8242-3.8594-15.082-3.8594-5.2539 0-10.469 1.332-15.082 3.8516l-38.508 21.207-18.863-39.836c-4.6016-9.7188-13.719-16.348-24.383-17.723l-43.621-5.4961 8.1133-43.344c1.9766-10.551-1.5039-21.254-9.3008-28.629l-32.043-30.109 32.043-30.305c7.7969-7.375 11.273-18.078 9.3008-28.625l-8.2266-43.191 43.734-5.6523c10.664-1.3789 19.781-8.0039 24.387-17.727l18.805-39.707 38.566 21.082c4.6094 2.5195 9.8242 3.8516 15.082 3.8516 5.2539 0 10.469-1.332 15.078-3.8516l38.508-21.207m-107.28-15.715c-5.8438 0-11.477 3.2812-14.164 8.957l-18.863 39.836c-2.2812 4.8164-6.8555 8.1406-12.141 8.8242l-43.734 5.6523c-8.918 1.1523-15.035 9.5664-13.379 18.406l8.1133 43.344c0.98047 5.2305-0.76562 10.598-4.6289 14.254l-32.043 30.305c-6.5312 6.1758-6.5312 16.57 0 22.746l32.043 30.301c3.8672 3.6562 5.6094 9.0234 4.6289 14.254l-8.1133 43.344c-1.6562 8.8398 4.4609 17.254 13.379 18.406l43.734 5.6523c5.2852 0.68359 9.8594 4.0078 12.141 8.8242l18.863 39.836c2.6875 5.6758 8.3203 8.957 14.164 8.957 2.5312 0 5.1055-0.61719 7.4922-1.9219l38.691-21.148c2.3359-1.2773 4.9219-1.918 7.5039-1.918 2.5859 0 5.168 0.64062 7.5078 1.918l38.688 21.148c2.3906 1.3047 4.9609 1.9219 7.4922 1.9219 5.8438 0 11.477-3.2812 14.164-8.957l18.863-39.836c2.2812-4.8164 6.8555-8.1406 12.141-8.8242l43.734-5.6523c8.918-1.1523 15.035-9.5664 13.379-18.406l-8.1133-43.344c-0.97656-5.2305 0.76562-10.598 4.6328-14.254l32.043-30.305c6.5312-6.1758 6.5312-16.57 0-22.746l-32.043-30.301c-3.8672-3.6562-5.6094-9.0234-4.6328-14.254l8.1133-43.344c1.6562-8.8398-4.4609-17.254-13.379-18.406l-43.734-5.6523c-5.2852-0.68359-9.8594-4.0078-12.141-8.8242l-18.859-39.836c-2.6875-5.6758-8.3203-8.957-14.164-8.957-2.5312 0-5.1055 0.61719-7.4922 1.9219l-38.691 21.148c-2.3398 1.2773-4.9219 1.918-7.5078 1.918s-5.168-0.64062-7.5078-1.918l-38.688-21.148c-2.3906-1.3047-4.9609-1.9219-7.4922-1.9219z"/>
  <path d="m323.07 342.1h-8.6016v53.23l-35.613-53.23h-9.2031v67.801h8.6055v-53.277l35.609 53.277h9.2031z"/>
  <path d="m387.36 342.1h-49.023v67.801h50.598v-8h-41.625v-23.078h37.508v-7.957h-37.508v-20.766h40.051z"/>
  <path d="m482.35 342.1h-9.0195l-10.637 43.566c-1.3867 5.5508-2.5117 10.469-3.375 14.754-1.0781-7.4922-2.8359-15.492-5.2734-24.004l-9.7109-34.316h-10.82l-12.902 45.785c-0.30859 1.1094-1.3242 5.2891-3.0508 12.535-0.80078-4.5938-1.7578-9.2188-2.8672-13.875l-10.312-44.445h-9.2031l17.992 67.801h9.1562l14.383-51.66c0.61719-2.1875 1.2812-4.8398 1.9883-7.9531 0.21484 0.98828 0.92578 3.6367 2.1289 7.9531l14.289 51.66h8.6484z"/>
 </g>
</svg>
